<svg version="1.1" id="Layer_1" xmlns="http://www.w3.org/2000/svg" xmlns:xlink="http://www.w3.org/1999/xlink" x="0px" y="0px"
                 viewBox="0 0 133 133" style="enable-background:new 0 0 133 133;" xml:space="preserve">
                <g>
                    <path d="M30.8,54.4c0.4,0.1,0.9,0,1.1-0.4c0.2-0.5-0.2-0.9-0.6-1c-0.1,0-0.2-0.1-0.3-0.1c-0.3,0-0.6,0.2-0.7,0.5
                        c-0.1,0.2-0.1,0.4,0,0.6C30.4,54.1,30.6,54.3,30.8,54.4z"/>
                    <path d="M34.7,85c0.2-0.1,0.4-0.3,0.4-0.5c0-0.2,0-0.4-0.1-0.5c-0.3-0.4-0.8-0.4-1.1-0.2c-0.2,0.1-0.3,0.3-0.4,0.5
                        c-0.1,0.2,0,0.4,0.1,0.6C33.9,85.2,34.4,85.2,34.7,85z"/>
                    <path d="M36.8,44.3c0.1-0.2,0.2-0.4,0.1-0.6c0-0.2-0.2-0.4-0.4-0.5c-0.2-0.1-0.4-0.2-0.5-0.2c-0.2,0-0.4,0.1-0.6,0.3
                        c-0.1,0.2-0.2,0.3-0.1,0.5c0,0.2,0.2,0.4,0.4,0.6C36.1,44.7,36.6,44.7,36.8,44.3z"/>
                    <path d="M0,0v133h133V0H0z M124.7,71.9h-6.8c-1.3,12.6-7.3,24.3-16.7,32.9c-9.6,8.7-22,13.5-35,13.5c-28.7,0-52-23.3-52-51.9
                        c0-28.6,23.3-51.9,52-51.9c11.8,0,23.3,4.1,32.5,11.4c9.1,7.3,15.5,17.4,18.1,28.6l0.1,0.3h-1.5l0-0.2
                        c-2.6-10.8-8.8-20.7-17.6-27.7C88.9,20,77.6,16.1,66.2,16.1c-27.9,0-50.5,22.6-50.5,50.4s22.7,50.4,50.5,50.4
                        c12.6,0,24.6-4.7,34-13.1c9.2-8.3,15-19.7,16.3-31.9h-7.1v-1.4h15.4V71.9z M98.4,65.2v0.5c0,7.6-6.2,13.8-13.8,13.8h-6.3V51.4h6.3
                        C92.2,51.4,98.4,57.6,98.4,65.2z M73.9,93v1.4H58.5V93h7V39.9h-7v-1.4h15.4v1.4h-7V93H73.9z M26.8,59.1c0.6-0.4,1.3-0.6,2-0.5
                        c0.8,0.1,1.5,0.5,1.9,1c0.5,0.6,0.7,1.4,0.6,2.2l-0.2,1.9l-5.7-0.6l0.2-1.9C25.8,60.3,26.2,59.6,26.8,59.1z M26.4,56.3
                        c0.1-0.5,0.6-0.7,1-0.6c0.2,0.1,0.4,0.2,0.5,0.4c0.1,0.2,0.2,0.4,0.1,0.6c-0.1,0.4-0.4,0.7-0.8,0.7c-0.1,0-0.1,0-0.2,0
                        c-0.2-0.1-0.4-0.2-0.5-0.4C26.3,56.7,26.3,56.5,26.4,56.3z M34.6,46.9c0.4,0.2,0.4,0.2,0.5,0c0.1-0.1,0.1-0.3,0.2-0.3l0.1-0.3
                        l1.1,0.6l-0.1,0.2c0,0.1-0.1,0.4-0.3,0.6c-0.3,0.5-0.6,0.7-1.1,0.7c-0.3,0-0.6-0.1-0.9-0.3l-1.2-0.7L32.6,48l-1-0.6l0.3-0.5
                        L31,46.4l0.6-1.1l0.9,0.5l0.4-0.7l1,0.6l-0.4,0.7L34.6,46.9z M35,42l0.8-1.1l3.2,2.3l-0.8,1.1l-0.1-0.1c0,0.3-0.1,0.6-0.3,0.8
                        c-0.4,0.5-1,0.8-1.6,0.8c-0.4,0-0.9-0.1-1.2-0.4c-0.5-0.3-0.8-0.8-0.9-1.4c-0.1-0.5,0-1,0.4-1.5c0.2-0.2,0.4-0.4,0.7-0.5L35,42z
                         M31.1,48.5l3.6,1.7l-0.6,1.2l-3.6-1.7L31.1,48.5z M30.6,49c-0.1,0.3-0.4,0.5-0.8,0.5c-0.1,0-0.2,0-0.4-0.1
                        c-0.2-0.1-0.4-0.3-0.4-0.5c-0.1-0.2-0.1-0.4,0-0.6c0.2-0.4,0.7-0.6,1.1-0.4c0.2,0.1,0.4,0.3,0.4,0.5C30.7,48.6,30.7,48.8,30.6,49z
                         M29.1,53c0.1-0.3,0.3-0.5,0.5-0.7l-0.1,0l0.4-1.2l3.7,1.2c0.6,0.2,1,0.5,1.2,1c0.2,0.4,0.1,1-0.1,1.6c-0.2,0.6-0.5,1-1,1.2
                        c-0.2,0.1-0.5,0.2-0.8,0.2c-0.2,0-0.3,0-0.5-0.1l-0.3-0.1l0.4-1c-0.5,0.5-1.3,0.8-2.1,0.5c-0.5-0.2-1-0.6-1.2-1.1
                        C29,54.1,28.9,53.5,29.1,53z M33.1,77.7c-0.1,0.2-0.3,0.4-0.5,0.4c-0.1,0-0.2,0-0.3,0c-0.4,0-0.7-0.2-0.8-0.6
                        c-0.1-0.2-0.1-0.4,0-0.6s0.3-0.4,0.5-0.4c0.4-0.2,0.9,0.1,1.1,0.5C33.2,77.3,33.2,77.5,33.1,77.7z M32.2,56.9l-0.3,1.3L28,57.3
                        l0.3-1.3L32.2,56.9z M26.7,67.3l0.1,1.3l4.4-0.4l0.1,1.3L27,69.9l0.1,1.3l-1.3,0.1l-0.4-3.9L26.7,67.3z M31.6,71.4l0.3,1.4
                        l-5.6,1.1L26,72.5L31.6,71.4z M30.1,80.3l1.1-0.5l0.3,0.7l1.1-0.5c0.3-0.1,0.3-0.2,0.3-0.2c0,0,0-0.1,0-0.2c0-0.1-0.1-0.3-0.2-0.3
                        l-0.2-0.2l1.1-0.5l0.1,0.2c0.1,0.1,0.2,0.3,0.3,0.6c0.1,0.3,0.3,0.6,0.1,1c-0.1,0.3-0.4,0.6-0.9,0.8L32,81.7l0.2,0.5l-1.1,0.5
                        L31,82.2l-1,0.4l-0.5-1.2l1-0.4L30.1,80.3z M32.3,83.8c0.1-0.5,0.5-1,1-1.3c1-0.6,2.2-0.3,2.8,0.7c0.3,0.5,0.4,1,0.2,1.6
                        c-0.1,0.5-0.5,1-1,1.3c-0.3,0.2-0.7,0.3-1.1,0.3c-0.7,0-1.4-0.4-1.8-1C32.3,84.9,32.2,84.3,32.3,83.8z M34.8,88.6l0.2-0.2l0.9,1
                        l-0.1,0.2c-0.3,0.3-0.2,0.9,0.2,1.3c0.6,0.8,1.7,0.6,2.3,0.1c0.4-0.3,0.6-0.7,0.7-1.2c0-0.4-0.1-0.8-0.4-1.2
                        c-0.4-0.5-0.9-0.6-1.3-0.5l0.6,0.7l-1,0.8l-1.9-2.3l1-0.8l0.4,0.5c1.2-0.5,2.4-0.2,3.3,0.8c0.5,0.6,0.8,1.4,0.7,2.1
                        c-0.1,0.8-0.5,1.5-1.1,2c-0.5,0.4-1.2,0.7-2,0.7c-0.8,0-1.6-0.3-2.2-1.1C34.1,90.7,34,89.4,34.8,88.6z M39.6,42.6l-4.2-3.8l0.9-1
                        l4.2,3.8L39.6,42.6z"/>
                    <path d="M33.5,54.5c0.1-0.3,0.1-0.5,0-0.6c-0.1-0.2-0.2-0.3-0.4-0.3l-0.1,0c0.1,0.3,0,0.6,0,0.8c-0.1,0.2-0.2,0.4-0.3,0.6l0.1,0
                        C33.1,55.1,33.4,54.9,33.5,54.5z"/>
                    <path d="M84.5,52.9h-4.9v25.2h4.9c6.8,0,12.4-5.5,12.4-12.4v-0.5C96.9,58.4,91.4,52.9,84.5,52.9z"/>
                    <path d="M30.1,61.7c0.1-0.5-0.1-0.9-0.4-1.2c-0.3-0.3-0.6-0.5-1-0.5c-0.8-0.1-1.6,0.4-1.8,1.4l-0.1,0.6l3.1,0.4L30.1,61.7z"/>
                </g>
            </svg>